<svg preserveAspectRatio="none" overflow="visible" style="display: block;" width="86" height="71.0001" viewBox="0 0 86 71.0001" fill="none" xmlns="http://www.w3.org/2000/svg">
<g id="Group 2">
<path id="Rectangle 3" fill-rule="evenodd" clip-rule="evenodd" d="M55.6046 71L19.6689 35.0678V43.8493V48.24V50.4353L40.2356 71H55.6046Z" fill="url(#paint0_radial_0_48)"/>
<g id="Rectangle 2">
<path fill-rule="evenodd" clip-rule="evenodd" d="M17.5646 11.6522L47.4357 41.5204V59.0833L0 11.6522H17.5646Z" fill="#C4C2C2"/>
<path fill-rule="evenodd" clip-rule="evenodd" d="M17.5646 11.6522L47.4357 41.5204V59.0833L0 11.6522H17.5646Z" fill="url(#paint1_linear_0_48)"/>
</g>
<path id="Vector" d="M50.0422 45.3824V61.7522L53.7154 65.425H75.8624C79.5631 65.4249 81.7489 61.2774 79.6568 58.2251L75.1618 51.6671C73.2132 52.3562 71.2003 52.8184 69.3068 52.8184C62.583 52.8184 57.2452 46.4999 50.0422 45.3824Z" fill="url(#paint2_linear_0_48)"/>
<path id="Vector_2" fill-rule="evenodd" clip-rule="evenodd" d="M12.42 28.1909L0 15.772V70.9445L12.42 58.5257V28.1909Z" fill="url(#paint3_linear_0_48)"/>
<g id="Group 3">
<mask id="mask0_0_48" style="mask-type:alpha" maskUnits="userSpaceOnUse" x="49" y="18" width="37" height="53">
<g id="Vector_3">
<path fill-rule="evenodd" clip-rule="evenodd" d="M66.7003 20.8091H55.9669H53.2069V18.0494H69.4603V20.8091H66.7003Z" fill="#D9D9D9"/>
<path d="M71.9137 20.1958V18.0494H69.4603V20.8091L71.9137 20.1958Z" fill="#D9D9D9"/>
<path d="M50.7535 20.1958V18.0494H53.2069V20.8091L50.7535 20.1958Z" fill="#D9D9D9"/>
<path d="M75.8626 70.9444V68.1847H56.4757L59.2357 70.9444H75.8626Z" fill="#D9D9D9"/>
<path d="M55.9669 34.5075V20.8091H53.2069V33.5976C53.1318 33.6991 53.0582 33.8026 52.986 33.9079L49.1321 39.5306L50.0425 40.4409V43.084L55.2627 35.468C55.3161 35.3901 55.3704 35.3137 55.4258 35.2389L55.9669 34.5075Z" fill="#D9D9D9"/>
<path fill-rule="evenodd" clip-rule="evenodd" d="M75.8626 70.9444V68.1847C81.7838 68.1847 85.2811 61.5487 81.9337 56.665L67.4047 35.468C67.3513 35.3901 67.2969 35.3137 67.2416 35.2389L67.0328 34.9567L69.8778 34.1945L84.2103 55.1048C88.813 61.82 84.0043 70.9444 75.8626 70.9444ZM69.4603 31.5342V20.8091H66.7003V32.2736L69.4603 31.5342Z" fill="#D9D9D9"/>
</g>
</mask>
<g mask="url(#mask0_0_48)">
<ellipse id="Ellipse 11" cx="75.977" cy="62.7843" rx="29.3635" ry="29.3606" fill="url(#paint4_linear_0_48)"/>
<g id="Ellipse 8" filter="url(#filter0_f_0_48)">
<ellipse cx="71.9134" cy="18.5518" rx="9.5067" ry="9.50578" fill="#00457C"/>
</g>
<g id="Ellipse 9" filter="url(#filter1_f_0_48)">
<ellipse cx="51.6735" cy="19.165" rx="10.12" ry="10.1191" fill="url(#paint5_radial_0_48)"/>
</g>
<g id="Ellipse 12" filter="url(#filter2_f_0_48)">
<ellipse cx="67.0068" cy="27.751" rx="10.12" ry="4.59957" fill="url(#paint6_radial_0_48)"/>
</g>
<g id="Ellipse 10" filter="url(#filter3_f_0_48)">
<ellipse cx="49.1435" cy="39.9397" rx="12.6501" ry="12.6488" fill="#007EE2"/>
</g>
<g id="Ellipse 13" filter="url(#filter4_f_0_48)">
<ellipse cx="61.7933" cy="22.2314" rx="6.74669" ry="6.74604" fill="#007EE2"/>
</g>
</g>
</g>
<g id="Group 5">
<g id="Ellipse 1">
<ellipse cx="71.607" cy="48.7555" rx="1.53334" ry="1.53319" fill="#C4C2C2"/>
<ellipse cx="71.607" cy="48.7555" rx="1.53334" ry="1.53319" fill="url(#paint7_linear_0_48)"/>
</g>
<g id="Ellipse 4">
<ellipse cx="62.4071" cy="14.2587" rx="1.53334" ry="1.53319" fill="#C4C2C2"/>
<ellipse cx="62.4071" cy="14.2587" rx="1.53334" ry="1.53319" fill="url(#paint8_linear_0_48)"/>
</g>
<g id="Ellipse 5">
<ellipse cx="65.9337" cy="10.579" rx="1.53334" ry="1.53319" fill="#C4C2C2"/>
<ellipse cx="65.9337" cy="10.579" rx="1.53334" ry="1.53319" fill="url(#paint9_linear_0_48)"/>
</g>
<g id="Ellipse 2">
<ellipse cx="65.9335" cy="46.4557" rx="1.99334" ry="1.99315" fill="#C4C2C2"/>
<ellipse cx="65.9335" cy="46.4557" rx="1.99334" ry="1.99315" fill="url(#paint10_linear_0_48)"/>
</g>
<g id="Ellipse 6">
<ellipse cx="57.6535" cy="9.04579" rx="1.99334" ry="1.99315" fill="#C4C2C2"/>
<ellipse cx="57.6535" cy="9.04579" rx="1.99334" ry="1.99315" fill="url(#paint11_linear_0_48)"/>
</g>
<g id="Ellipse 3">
<ellipse cx="61.7934" cy="40.323" rx="2.91335" ry="2.91306" fill="#C4C2C2"/>
<ellipse cx="61.7934" cy="40.323" rx="2.91335" ry="2.91306" fill="url(#paint12_linear_0_48)"/>
</g>
<g id="Ellipse 7">
<ellipse cx="62.407" cy="2.91306" rx="2.91335" ry="2.91306" fill="#C4C2C2"/>
<ellipse cx="62.407" cy="2.91306" rx="2.91335" ry="2.91306" fill="url(#paint13_linear_0_48)"/>
</g>
</g>
</g>
<defs>
<filter id="filter0_f_0_48" x="28.1067" y="-25.254" width="87.6134" height="87.6116" filterUnits="userSpaceOnUse" color-interpolation-filters="sRGB">
<feFlood flood-opacity="0" result="BackgroundImageFix"/>
<feBlend mode="normal" in="SourceGraphic" in2="BackgroundImageFix" result="shape"/>
<feGaussianBlur stdDeviation="17.15" result="effect1_foregroundBlur_0_48"/>
</filter>
<filter id="filter1_f_0_48" x="7.25347" y="-25.254" width="88.8401" height="88.8381" filterUnits="userSpaceOnUse" color-interpolation-filters="sRGB">
<feFlood flood-opacity="0" result="BackgroundImageFix"/>
<feBlend mode="normal" in="SourceGraphic" in2="BackgroundImageFix" result="shape"/>
<feGaussianBlur stdDeviation="17.15" result="effect1_foregroundBlur_0_48"/>
</filter>
<filter id="filter2_f_0_48" x="22.5867" y="-11.1486" width="88.8401" height="77.7991" filterUnits="userSpaceOnUse" color-interpolation-filters="sRGB">
<feFlood flood-opacity="0" result="BackgroundImageFix"/>
<feBlend mode="normal" in="SourceGraphic" in2="BackgroundImageFix" result="shape"/>
<feGaussianBlur stdDeviation="17.15" result="effect1_foregroundBlur_0_48"/>
</filter>
<filter id="filter3_f_0_48" x="2.19341" y="-7.0091" width="93.9001" height="93.8976" filterUnits="userSpaceOnUse" color-interpolation-filters="sRGB">
<feFlood flood-opacity="0" result="BackgroundImageFix"/>
<feBlend mode="normal" in="SourceGraphic" in2="BackgroundImageFix" result="shape"/>
<feGaussianBlur stdDeviation="17.15" result="effect1_foregroundBlur_0_48"/>
</filter>
<filter id="filter4_f_0_48" x="20.7466" y="-18.8146" width="82.0934" height="82.0921" filterUnits="userSpaceOnUse" color-interpolation-filters="sRGB">
<feFlood flood-opacity="0" result="BackgroundImageFix"/>
<feBlend mode="normal" in="SourceGraphic" in2="BackgroundImageFix" result="shape"/>
<feGaussianBlur stdDeviation="17.15" result="effect1_foregroundBlur_0_48"/>
</filter>
<radialGradient id="paint0_radial_0_48" cx="0" cy="0" r="1" gradientTransform="matrix(5.75695 -21.4832 21.4852 5.75639 31.5101 62.4193)" gradientUnits="userSpaceOnUse">
<stop stop-color="#007EE2"/>
<stop offset="1" stop-color="#00457C"/>
</radialGradient>
<linearGradient id="paint1_linear_0_48" x1="32.0468" y1="30.5334" x2="48.3523" y2="46.8405" gradientUnits="userSpaceOnUse">
<stop stop-color="#C4C2C2"/>
<stop offset="1" stop-color="#5E5D5D"/>
</linearGradient>
<linearGradient id="paint2_linear_0_48" x1="55.234" y1="45.3824" x2="75.2766" y2="65.4269" gradientUnits="userSpaceOnUse">
<stop stop-color="#007EE2"/>
<stop offset="1" stop-color="#00457C"/>
</linearGradient>
<linearGradient id="paint3_linear_0_48" x1="6.21002" y1="40.323" x2="6.21002" y2="15.772" gradientUnits="userSpaceOnUse">
<stop stop-color="#C4C2C2"/>
<stop offset="1" stop-color="#5E5D5D"/>
</linearGradient>
<linearGradient id="paint4_linear_0_48" x1="75.977" y1="33.4237" x2="75.977" y2="72.2901" gradientUnits="userSpaceOnUse">
<stop offset="0.45" stop-color="#C4C2C2"/>
<stop offset="1" stop-color="#5E5D5D"/>
</linearGradient>
<radialGradient id="paint5_radial_0_48" cx="0" cy="0" r="1" gradientTransform="matrix(13.8767 3.7179 -3.71826 13.8754 51.6735 19.165)" gradientUnits="userSpaceOnUse">
<stop stop-color="#00457C"/>
<stop offset="1" stop-color="#007EE2"/>
</radialGradient>
<radialGradient id="paint6_radial_0_48" cx="0" cy="0" r="1" gradientTransform="matrix(13.8767 1.68995 -3.71826 6.30699 67.0068 27.751)" gradientUnits="userSpaceOnUse">
<stop stop-color="#00457C"/>
<stop offset="1" stop-color="#007EE2"/>
</radialGradient>
<linearGradient id="paint7_linear_0_48" x1="70.597" y1="47.2223" x2="73.4144" y2="49.0785" gradientUnits="userSpaceOnUse">
<stop stop-color="#007EE2"/>
<stop offset="1" stop-color="#00457C"/>
</linearGradient>
<linearGradient id="paint8_linear_0_48" x1="61.397" y1="12.7255" x2="64.2145" y2="14.5817" gradientUnits="userSpaceOnUse">
<stop stop-color="#007EE2"/>
<stop offset="1" stop-color="#00457C"/>
</linearGradient>
<linearGradient id="paint9_linear_0_48" x1="64.9236" y1="9.0458" x2="67.7411" y2="10.902" gradientUnits="userSpaceOnUse">
<stop stop-color="#007EE2"/>
<stop offset="1" stop-color="#00457C"/>
</linearGradient>
<linearGradient id="paint10_linear_0_48" x1="64.6204" y1="44.4626" x2="68.2831" y2="46.8756" gradientUnits="userSpaceOnUse">
<stop stop-color="#007EE2"/>
<stop offset="1" stop-color="#00457C"/>
</linearGradient>
<linearGradient id="paint11_linear_0_48" x1="56.3404" y1="7.05264" x2="60.0031" y2="9.46569" gradientUnits="userSpaceOnUse">
<stop stop-color="#007EE2"/>
<stop offset="1" stop-color="#00457C"/>
</linearGradient>
<linearGradient id="paint12_linear_0_48" x1="59.8743" y1="37.4099" x2="65.2275" y2="40.9367" gradientUnits="userSpaceOnUse">
<stop stop-color="#007EE2"/>
<stop offset="1" stop-color="#00457C"/>
</linearGradient>
<linearGradient id="paint13_linear_0_48" x1="60.4878" y1="-1.05932e-07" x2="65.841" y2="3.52676" gradientUnits="userSpaceOnUse">
<stop stop-color="#007EE2"/>
<stop offset="1" stop-color="#00457C"/>
</linearGradient>
</defs>
</svg>
